<?xml version="1.0" encoding="UTF-8" standalone="no"?>
<svg
   xmlns:dc="http://purl.org/dc/elements/1.1/"
   xmlns:cc="http://creativecommons.org/ns#"
   xmlns:rdf="http://www.w3.org/1999/02/22-rdf-syntax-ns#"
   xmlns:svg="http://www.w3.org/2000/svg"
   xmlns="http://www.w3.org/2000/svg"
   width="52.712193mm"
   height="48.092262mm"
   viewBox="0 0 52.712193 48.092262"
   version="1.1"
   id="svg8">
  <defs
     id="defs2" />
  <metadata
     id="metadata5">
    <rdf:RDF>
      <cc:Work
         rdf:about="">
        <dc:format>image/svg+xml</dc:format>
        <dc:type
           rdf:resource="http://purl.org/dc/dcmitype/StillImage" />
        <dc:title></dc:title>
      </cc:Work>
    </rdf:RDF>
  </metadata>
  <g
     id="layer1"
     transform="translate(-67.41251,-137.71978)">
    <path
       id="path886"
       style="fill:#000000;stroke-width:0.264583"
       d="m 87.533404,185.4028 c -8.401527,-1.22317 -16.791728,-6.63894 -19.345352,-15.06097 -2.317183,-7.75708 0.824649,-16.1064 5.889405,-22.06563 4.781403,-5.73569 11.696822,-10.27597 19.33099,-10.55184 7.413683,-0.16754 13.995113,4.2851 18.877623,9.49706 4.64766,5.1874 8.15978,11.98082 7.81531,19.09964 -0.30416,7.60083 -5.95343,14.01358 -12.7262,16.91742 -6.20676,2.81279 -13.185133,2.94057 -19.841776,2.16432 z m 10.07079,-1.97811 c 7.074006,-0.76604 14.574136,-3.89471 18.115286,-10.42705 2.98629,-4.83144 2.60876,-11.01904 0.25152,-16.02125 -0.97594,-2.26339 -2.79764,-4.8453 -5.58602,-4.53698 -3.94214,0.45426 -7.3291,3.18101 -9.61727,6.2905 -1.627852,2.26373 -2.79564,6.20936 -6.110395,5.83751 -3.011914,0.0669 -4.650547,-3.01185 -6.212533,-5.12097 -2.018648,-3.38159 -5.347337,-5.97578 -9.114306,-7.10909 -2.670382,-0.83781 -5.579187,0.45618 -6.998214,2.81037 -3.471449,5.58897 -3.537332,13.12444 0.03041,18.69232 3.468587,5.61695 10.035648,8.48422 16.35047,9.42971 2.94184,0.42497 5.935501,0.44915 8.89105,0.15493 z" />
    <ellipse
       style="fill:#000000;fill-opacity:1;stroke:#000000;stroke-width:0.264583"
       id="path902"
       cx="78.187439"
       cy="161.10194"
       rx="0.83093679"
       ry="1.1457654" />
    <ellipse
       style="fill:#000000;fill-opacity:1;stroke:#000000;stroke-width:0.264583"
       id="path902-3"
       cx="108.5304"
       cy="160.69806"
       rx="0.83093679"
       ry="1.1457654" />
    <ellipse
       style="fill:#000000;fill-opacity:1;stroke:#000000;stroke-width:0.238855"
       id="path919"
       cx="94.561958"
       cy="162.42369"
       rx="6.5676866"
       ry="2.8337159" />
  </g>
</svg>
